{
  "source": "C:\\Users\\Peter\\Desktop\\stuff\\MIUN\\quantitative_research\\video_compression\\videos\\BVI-HD\\BVI-HD_CDVL_videos\\ORIG\\Music_1920x1080_30fps.mp4",
  "output": "C:\\Users\\Peter\\Desktop\\stuff\\MIUN\\quantitative_research\\video_compression\\compressed_videos\\BVI-HD\\vp9\\4\\Music_1920x1080_30fps_vp9.webm",
  "codec": "vp9",
  "ok": "Input #0, mov,mp4,m4a,3gp,3g2,mj2, from 'C:\\Users\\Peter\\Desktop\\stuff\\MIUN\\quantitative_research\\video_compression\\videos\\BVI-HD\\BVI-HD_CDVL_videos\\ORIG\\Music_1920x1080_30fps.mp4':\n  Metadata:\n    major_brand     : isom\n    minor_version   : 512\n    compatible_brands: isomiso2avc1mp41\n    encoder         : Lavf54.28.101\n  Duration: 00:00:05.00, start: 0.000000, bitrate: 192710 kb/s\n  Stream #0:0[0x1](und): Video: h264 (High 4:4:4 Predictive) (avc1 / 0x31637661), yuv420p(progressive), 1920x1080, 192707 kb/s, 30 fps, 30 tbr, 30 tbn (default)\n    Metadata:\n      handler_name    : VideoHandler\n      vendor_id       : [0][0][0][0]\n[out#0/webm @ 000002ad8cf8dac0] Codec AVOption b:a (set bitrate (in bits/s)) has not been used for any stream. The most likely reason is either wrong type (e.g. a video option with no video streams) or that it is a private option of some decoder which was not actually used for any stream.\nStream mapping:\n  Stream #0:0 -> #0:0 (h264 (native) -> vp9 (libvpx-vp9))\nPress [q] to stop, [?] for help\n[libvpx-vp9 @ 000002ad8d0007c0] v1.15.2-100-g40561f514\nOutput #0, webm, to 'C:\\Users\\Peter\\Desktop\\stuff\\MIUN\\quantitative_research\\video_compression\\compressed_videos\\BVI-HD\\vp9\\4\\Music_1920x1080_30fps_vp9.webm':\n  Metadata:\n    major_brand     : isom\n    minor_version   : 512\n    compatible_brands: isomiso2avc1mp41\n    encoder         : Lavf62.3.100\n  Stream #0:0(und): Video: vp9, yuv420p(tv, progressive), 1920x1080, q=2-31, 4000 kb/s, 30 fps, 1k tbn (default)\n    Metadata:\n      encoder         : Lavc62.11.100 libvpx-vp9\n      handler_name    : VideoHandler\n      vendor_id       : [0][0][0][0]\n    Side data:\n      cpb: bitrate max/min/avg: 0/0/0 buffer size: 4000000 vbv_delay: N/A\nframe=    0 fps=0.0 q=0.0 size=       0KiB time=N/A bitrate=N/A speed=N/A elapsed=0:00:00.52    \nframe=    8 fps=7.3 q=33.0 size=       1KiB time=00:00:00.26 bitrate=  19.0kbits/s speed=0.243x elapsed=0:00:01.09    \nframe=   14 fps=8.6 q=33.0 size=       1KiB time=00:00:00.46 bitrate=  10.9kbits/s speed=0.288x elapsed=0:00:01.62    \nframe=   20 fps=9.4 q=28.0 size=       1KiB time=00:00:00.66 bitrate=   7.6kbits/s speed=0.313x elapsed=0:00:02.13    \nframe=   25 fps=9.4 q=31.0 size=       1KiB time=00:00:00.83 bitrate=   6.1kbits/s speed=0.314x elapsed=0:00:02.65    \nframe=   30 fps=9.5 q=36.0 size=       1KiB time=00:00:01.00 bitrate=   5.1kbits/s speed=0.316x elapsed=0:00:03.16    \nframe=   36 fps=9.8 q=48.0 size=       1KiB time=00:00:01.20 bitrate=   4.2kbits/s speed=0.326x elapsed=0:00:03.68    \nframe=   41 fps=9.7 q=24.0 size=       1KiB time=00:00:01.36 bitrate=   3.7kbits/s speed=0.325x elapsed=0:00:04.20    \nframe=   46 fps=9.7 q=37.0 size=       1KiB time=00:00:01.53 bitrate=   3.3kbits/s speed=0.324x elapsed=0:00:04.72    \nframe=   50 fps=9.5 q=39.0 size=       1KiB time=00:00:01.66 bitrate=   3.0kbits/s speed=0.318x elapsed=0:00:05.24    \nframe=   56 fps=9.7 q=37.0 size=       1KiB time=00:00:01.86 bitrate=   2.7kbits/s speed=0.323x elapsed=0:00:05.77    \nframe=   60 fps=9.5 q=38.0 size=       1KiB time=00:00:02.00 bitrate=   2.5kbits/s speed=0.317x elapsed=0:00:06.30    \nframe=   65 fps=9.5 q=38.0 size=       1KiB time=00:00:02.16 bitrate=   2.3kbits/s speed=0.317x elapsed=0:00:06.83    \nframe=   70 fps=9.5 q=39.0 size=       1KiB time=00:00:02.33 bitrate=   2.2kbits/s speed=0.317x elapsed=0:00:07.35    \nframe=   75 fps=9.5 q=37.0 size=       1KiB time=00:00:02.50 bitrate=   2.0kbits/s speed=0.317x elapsed=0:00:07.89    \nframe=   80 fps=9.5 q=37.0 size=       1KiB time=00:00:02.66 bitrate=   1.9kbits/s speed=0.316x elapsed=0:00:08.43    \nframe=   85 fps=9.5 q=37.0 size=       1KiB time=00:00:02.83 bitrate=   1.8kbits/s speed=0.317x elapsed=0:00:08.95    \nframe=   90 fps=9.5 q=38.0 size=       1KiB time=00:00:03.00 bitrate=   1.7kbits/s speed=0.316x elapsed=0:00:09.48    \nframe=   95 fps=9.5 q=38.0 size=       1KiB time=00:00:03.16 bitrate=   1.6kbits/s speed=0.316x elapsed=0:00:10.01    \nframe=  100 fps=9.5 q=38.0 size=       1KiB time=00:00:03.33 bitrate=   1.5kbits/s speed=0.316x elapsed=0:00:10.54    \nframe=  105 fps=9.5 q=37.0 size=       1KiB time=00:00:03.50 bitrate=   1.4kbits/s speed=0.316x elapsed=0:00:11.06    \nframe=  110 fps=9.5 q=39.0 size=       1KiB time=00:00:03.66 bitrate=   1.4kbits/s speed=0.316x elapsed=0:00:11.59    \nframe=  115 fps=9.5 q=38.0 size=       1KiB time=00:00:03.83 bitrate=   1.3kbits/s speed=0.316x elapsed=0:00:12.12    \nframe=  120 fps=9.5 q=38.0 size=       1KiB time=00:00:04.00 bitrate=   1.3kbits/s speed=0.316x elapsed=0:00:12.65    \nframe=  126 fps=9.6 q=38.0 size=       1KiB time=00:00:04.20 bitrate=   1.2kbits/s speed=0.318x elapsed=0:00:13.19    \nframe=  126 fps=9.2 q=38.0 size=       1KiB time=00:00:04.20 bitrate=   1.2kbits/s speed=0.306x elapsed=0:00:13.71    \nframe=  126 fps=8.8 q=38.0 size=       1KiB time=00:00:04.20 bitrate=   1.2kbits/s speed=0.295x elapsed=0:00:14.23    \nframe=  126 fps=8.5 q=38.0 size=       1KiB time=00:00:04.20 bitrate=   1.2kbits/s speed=0.285x elapsed=0:00:14.75    \nframe=  126 fps=8.2 q=38.0 size=       1KiB time=00:00:04.20 bitrate=   1.2kbits/s speed=0.275x elapsed=0:00:15.29    \n[out#0/webm @ 000002ad8cf8dac0] video:1934KiB audio:0KiB subtitle:0KiB other streams:0KiB global headers:0KiB muxing overhead: 0.089016%\nframe=  150 fps=9.7 q=30.0 Lsize=    1936KiB time=00:00:05.00 bitrate=3171.7kbits/s speed=0.323x elapsed=0:00:15.48    \n",
  "seconds": 15.818890571594238,
  "probe_out": {}
}